<?xml version="1.0" encoding="utf-8"?>
<!-- Generator: Adobe Illustrator 24.0.2, SVG Export Plug-In . SVG Version: 6.00 Build 0)  -->
<svg version="1.1"
	 id="Capa_1" inkscape:version="0.92.3 (2405546, 2018-03-11)" sodipodi:docname="binoculares.svg" xmlns:cc="http://creativecommons.org/ns#" xmlns:dc="http://purl.org/dc/elements/1.1/" xmlns:inkscape="http://www.inkscape.org/namespaces/inkscape" xmlns:rdf="http://www.w3.org/1999/02/22-rdf-syntax-ns#" xmlns:sodipodi="http://sodipodi.sourceforge.net/DTD/sodipodi-0.dtd" xmlns:svg="http://www.w3.org/2000/svg"
	 xmlns="http://www.w3.org/2000/svg" xmlns:xlink="http://www.w3.org/1999/xlink" x="0px" y="0px" viewBox="0 0 96 89"
	 style="enable-background:new 0 0 96 89;" xml:space="preserve">
<style type="text/css">
	.st0{fill:#00959B;}
</style>
<sodipodi:namedview  bordercolor="#666666" borderopacity="1" gridtolerance="10" guidetolerance="10" id="namedview51" inkscape:current-layer="Capa_1" inkscape:cx="228.149" inkscape:cy="228.149" inkscape:pageopacity="0" inkscape:pageshadow="2" inkscape:window-height="480" inkscape:window-maximized="0" inkscape:window-width="640" inkscape:window-x="0" inkscape:window-y="0" inkscape:zoom="0.51720586" objecttolerance="10" pagecolor="#ffffff" showgrid="false">
	</sodipodi:namedview>
<g id="g20">
</g>
<g id="g22">
</g>
<g id="g24">
</g>
<g id="g26">
</g>
<g id="g28">
</g>
<g id="g30">
</g>
<g id="g32">
</g>
<g id="g34">
</g>
<g id="g36">
</g>
<g id="g38">
</g>
<g id="g40">
</g>
<g id="g42">
</g>
<g id="g44">
</g>
<g id="g46">
</g>
<g id="g48">
</g>
<path id="path2" class="st0" d="M92.4,13.3c-0.2-0.5-0.6-0.9-1.1-1l-9-2l-2-9c-0.2-0.8-1-1.3-1.8-1.1c-0.3,0.1-0.5,0.2-0.7,0.4
	L67.4,10.8C47.5-1.2,21.6,5.2,9.6,25.1S3.9,70.9,23.9,82.9s45.8,5.6,57.8-14.3c8.1-13.4,8.1-30.1,0-43.5l10.4-10.4
	C92.5,14.3,92.6,13.8,92.4,13.3L92.4,13.3z M84.8,46.9C84.8,68.5,67.2,86,45.6,86S6.5,68.5,6.5,46.9C6.5,25.3,24,7.7,45.6,7.7
	c6.9,0,13.6,1.8,19.6,5.3l-4.8,4.8c0,0-0.1,0.1-0.1,0.1c-16-8.2-35.6-1.8-43.8,14.2s-1.8,35.6,14.2,43.8s35.6,1.8,43.8-14.2
	c4.7-9.3,4.7-20.2,0-29.5c0.1,0,0.1-0.1,0.2-0.1l4.8-4.8C83,33.3,84.8,40,84.8,46.9L84.8,46.9z M71.1,32
	c8.2,14.1,3.5,32.1-10.5,40.4s-32.1,3.5-40.4-10.5s-3.5-32.1,10.5-40.4c9.2-5.4,20.6-5.4,29.8,0l1.6,6.9l-1.5,1.5
	c-9.5-8.3-23.9-7.4-32.2,2.1s-7.4,23.9,2.1,32.2c9.5,8.3,23.9,7.4,32.2-2.1c7.6-8.6,7.6-21.5,0-30.1l1.5-1.5L71.1,32z M52,46.9
	c0,3.5-2.8,6.4-6.3,6.4c-3.5,0-6.4-2.8-6.4-6.3c0-3.5,2.8-6.4,6.3-6.4c1.2,0,2.4,0.3,3.4,0.9l-4.4,4.4c-0.6,0.6-0.6,1.5,0,2.1
	c0.6,0.6,1.5,0.6,2.1,0c0,0,0,0,0,0l4.4-4.4C51.6,44.6,52,45.7,52,46.9z M51.1,39.4c-4.2-3-10-2.1-13,2.1c-3,4.2-2.1,10,2.1,13
	c4.2,3,10,2.1,13-2.1c2.4-3.3,2.4-7.7,0-11l7.5-7.5c7.1,8.3,6.2,20.8-2.1,28s-20.8,6.2-28-2.1s-6.2-20.8,2.1-28
	c7.4-6.4,18.4-6.4,25.9,0L51.1,39.4z M78.8,23.9l-5.5,5.5l-0.8-0.2l0,0L65,27.5l-1.9-8.3L78,4.4l1.7,7.3c0.1,0.6,0.6,1,1.1,1.1
	l7.3,1.7L78.8,23.9z"/>
</svg>
