<?xml version="1.0" encoding="utf-8"?>
<!-- Generator: Adobe Illustrator 24.0.2, SVG Export Plug-In . SVG Version: 6.00 Build 0)  -->
<svg version="1.1" id="Capa_1" xmlns="http://www.w3.org/2000/svg" xmlns:xlink="http://www.w3.org/1999/xlink" x="0px" y="0px"
	 viewBox="0 0 89 89" style="enable-background:new 0 0 89 89;" xml:space="preserve">
<style type="text/css">
	.st0{fill:#444444;}
</style>
<g>
	<path class="st0" d="M88.1,55c-0.6-0.2-1.2-0.1-1.6,0.4L80.1,62V22.4h0l6-6.5c0.6-0.6,0.5-1.5-0.1-2.1c0,0,0,0,0,0l-2.2-2l3-3.3
		c0.6-0.6,0.5-1.5-0.1-2.1l-6.5-6c-0.6-0.6-1.5-0.5-2.1,0.1L67.7,11.9H16.3c0-4.1-3.3-7.4-7.4-7.4H7.4C3.3,4.5,0,7.8,0,11.9v63.8
		c0,0.8,0.7,1.5,1.5,1.5h22.5l-3.1,3.7c-0.5,0.6-0.4,1.6,0.2,2.1l6.8,5.7c0.6,0.5,1.6,0.4,2.1-0.2l0,0l7.6-9.1
		c0.5-0.6,0.9-1.4,1-2.2h27.2l-8.9,9.4c-0.6,0.6-0.5,1.5,0.1,2.1c0.3,0.3,0.6,0.4,1,0.4h29.7c0.8,0,1.5-0.7,1.5-1.5V56.4
		C89,55.8,88.6,55.2,88.1,55z M3,74.2c0-2.5,2-4.5,4.5-4.5h1.5c2.5,0,4.5,2,4.5,4.5H3z M13.4,68.3c-1.3-1-2.8-1.5-4.5-1.5H7.4
		c-1.6,0-3.2,0.5-4.5,1.5V11.9c0-2.5,2-4.5,4.5-4.5h1.5c2.5,0,4.5,2,4.5,4.5V68.3z M80.1,18.1v-2.2l1.8-1.9l1.1,1L80.1,18.1z
		 M79.4,3.6l4.4,4l-2,2.2l-4.4-4L79.4,3.6z M75.3,7.9l4.4,4l-2.5,2.8h0v0L64.6,28.3l-4.4-4L75.3,7.9z M61.7,29.7l-3.4,1l0.7-3.5
		L61.7,29.7z M28.6,85.4l-4.6-3.8l3.8-4.6l4.6,3.8L28.6,85.4z M35.3,77.4C35.3,77.4,35.3,77.4,35.3,77.4L35.3,77.4l-1,1.1l-4.6-3.8
		l0.9-1.1c0.5-0.6,1.5-0.7,2.1-0.2c0,0,0,0,0,0l2.3,1.9C35.7,75.9,35.8,76.8,35.3,77.4z M37.9,74.2c-0.2-0.4-0.6-0.8-0.9-1.1
		l-2.3-1.9c-1.9-1.6-4.7-1.3-6.3,0.6l-2,2.4H16.3V14.8h48.6L57,23.3c-0.1,0.1-0.2,0.3-0.3,0.4c0,0,0,0.1,0,0.1c0,0,0,0.1,0,0.1
		l-1.8,8.5c-0.2,0.8,0.3,1.6,1.1,1.8c0.2,0,0.5,0,0.7,0l8.3-2.4c0,0,0.1,0,0.1,0c0,0,0.1,0,0.1-0.1c0.2-0.1,0.3-0.2,0.4-0.3
		l11.4-12.3v46l-8.6,9H37.9z M86,86H61.3l24.7-26V86z"/>
	<path class="st0" d="M69.8,82.1c0.2,0.6,0.8,0.9,1.4,0.9h10.4c0.8,0,1.5-0.7,1.5-1.5V71.2c0-0.8-0.7-1.5-1.5-1.5
		c-0.4,0-0.8,0.2-1,0.4L70.2,80.5C69.7,81,69.6,81.6,69.8,82.1z M80.1,74.8v5.3h-5.3L80.1,74.8z"/>
	<path class="st0" d="M65.3,56.4H54.9V40c0-0.4-0.2-0.8-0.4-1.1l-8.9-8.9c-0.6-0.6-1.5-0.6-2.1,0L34.5,39c-0.3,0.3-0.4,0.7-0.4,1.1
		v16.3H23.7c-0.8,0-1.5,0.7-1.5,1.5c0,0.8,0.7,1.5,1.5,1.5h41.5c0.8,0,1.5-0.7,1.5-1.5C66.8,57,66.1,56.4,65.3,56.4z M44.5,33.2
		l5.3,5.3H39.2L44.5,33.2z M51.9,56.4H37.1V41.5h14.8V56.4z"/>
	<rect x="43" y="23.7" class="st0" width="3" height="3"/>
	<rect x="43" y="62.3" class="st0" width="3" height="3"/>
</g>
</svg>
