<?xml version="1.0" encoding="utf-8"?>
<!-- Generator: Adobe Illustrator 24.0.2, SVG Export Plug-In . SVG Version: 6.00 Build 0)  -->
<svg version="1.1"
	 id="Capa_1" inkscape:version="0.92.3 (2405546, 2018-03-11)" sodipodi:docname="llamar-a-los-numeros-de-telefono.svg" xmlns:cc="http://creativecommons.org/ns#" xmlns:dc="http://purl.org/dc/elements/1.1/" xmlns:inkscape="http://www.inkscape.org/namespaces/inkscape" xmlns:rdf="http://www.w3.org/1999/02/22-rdf-syntax-ns#" xmlns:sodipodi="http://sodipodi.sourceforge.net/DTD/sodipodi-0.dtd" xmlns:svg="http://www.w3.org/2000/svg"
	 xmlns="http://www.w3.org/2000/svg" xmlns:xlink="http://www.w3.org/1999/xlink" x="0px" y="0px" viewBox="0 0 27 27"
	 style="enable-background:new 0 0 27 27;" xml:space="preserve">
<style type="text/css">
	.st0{fill:#9B9B9B;}
</style>
<sodipodi:namedview  bordercolor="#666666" borderopacity="1" gridtolerance="10" guidetolerance="10" id="namedview39" inkscape:current-layer="Capa_1" inkscape:cx="25.756001" inkscape:cy="25.756001" inkscape:pageopacity="0" inkscape:pageshadow="2" inkscape:window-height="480" inkscape:window-maximized="0" inkscape:window-width="640" inkscape:window-x="0" inkscape:window-y="0" inkscape:zoom="4.5814567" objecttolerance="10" pagecolor="#ffffff" showgrid="false">
	</sodipodi:namedview>
<g id="g8">
</g>
<g id="g10">
</g>
<g id="g12">
</g>
<g id="g14">
</g>
<g id="g16">
</g>
<g id="g18">
</g>
<g id="g20">
</g>
<g id="g22">
</g>
<g id="g24">
</g>
<g id="g26">
</g>
<g id="g28">
</g>
<g id="g30">
</g>
<g id="g32">
</g>
<g id="g34">
</g>
<g id="g36">
</g>
<g id="g42">
</g>
<g>
	<path class="st0" d="M23,3.9C20.5,1.4,17.1,0,13.5,0S6.5,1.4,4,3.9c-2.6,2.5-4,5.9-4,9.5l0,0l0,0c0,2.2,0.6,4.3,1.6,6.3L0,27
		l7.4-1.7c1.9,0.9,4,1.4,6.1,1.4l0,0c3.6,0,7-1.4,9.5-3.9c2.6-2.5,4-5.9,4-9.5C27,9.8,25.6,6.5,23,3.9z M13.5,24.7L13.5,24.7
		c-1.9,0-3.8-0.5-5.4-1.4l-0.3-0.2l-4.9,1.1L4,19.3L3.7,19c-1-1.8-1.6-3.7-1.6-5.6c0-6.2,5.1-11.3,11.4-11.3c3,0,5.9,1.2,8,3.3
		c2.2,2.2,3.4,5,3.4,8C24.9,19.6,19.8,24.7,13.5,24.7z"/>
	<path class="st0" d="M19.3,15.7c-0.3-0.2-1.8-0.9-2.1-1c-0.3-0.1-0.5-0.2-0.7,0.2c-0.2,0.3-0.8,1-1,1.2c-0.2,0.2-0.4,0.2-0.7,0.1
		c-0.3-0.2-1.3-0.5-2.5-1.5c-0.9-0.8-1.6-1.9-1.7-2.2c-0.2-0.3,0-0.5,0.1-0.6s0.3-0.3,0.5-0.5s0.2-0.3,0.3-0.5s0.1-0.4,0-0.5
		c-0.1-0.2-0.7-1.7-0.9-2.3l0,0c-0.2-0.5-0.5-0.5-0.7-0.5H9.2C9,7.5,8.7,7.6,8.4,7.9C8.1,8.2,7.3,9,7.3,10.5s1.1,3,1.3,3.2
		s2.1,3.4,5.3,4.6c2.6,1,3.1,0.8,3.7,0.8c0.6-0.1,1.8-0.7,2.1-1.5c0.3-0.7,0.3-1.3,0.2-1.5C19.8,16,19.6,15.9,19.3,15.7z"/>
</g>
</svg>
