<?xml version="1.0" encoding="utf-8"?>
<!-- Generator: Adobe Illustrator 24.0.2, SVG Export Plug-In . SVG Version: 6.00 Build 0)  -->
<svg version="1.1"
	 id="Capa_1" inkscape:version="0.92.3 (2405546, 2018-03-11)" sodipodi:docname="llamar-a-los-numeros-de-telefono.svg" xmlns:cc="http://creativecommons.org/ns#" xmlns:dc="http://purl.org/dc/elements/1.1/" xmlns:inkscape="http://www.inkscape.org/namespaces/inkscape" xmlns:rdf="http://www.w3.org/1999/02/22-rdf-syntax-ns#" xmlns:sodipodi="http://sodipodi.sourceforge.net/DTD/sodipodi-0.dtd" xmlns:svg="http://www.w3.org/2000/svg"
	 xmlns="http://www.w3.org/2000/svg" xmlns:xlink="http://www.w3.org/1999/xlink" x="0px" y="0px" viewBox="0 0 27 27"
	 style="enable-background:new 0 0 27 27;" xml:space="preserve">
<style type="text/css">
	.st0{fill:#9B9B9B;}
</style>
<sodipodi:namedview  bordercolor="#666666" borderopacity="1" gridtolerance="10" guidetolerance="10" id="namedview39" inkscape:current-layer="Capa_1" inkscape:cx="25.756001" inkscape:cy="25.756001" inkscape:pageopacity="0" inkscape:pageshadow="2" inkscape:window-height="480" inkscape:window-maximized="0" inkscape:window-width="640" inkscape:window-x="0" inkscape:window-y="0" inkscape:zoom="4.5814567" objecttolerance="10" pagecolor="#ffffff" showgrid="false">
	</sodipodi:namedview>
<g id="g8">
</g>
<g id="g10">
</g>
<g id="g12">
</g>
<g id="g14">
</g>
<g id="g16">
</g>
<g id="g18">
</g>
<g id="g20">
</g>
<g id="g22">
</g>
<g id="g24">
</g>
<g id="g26">
</g>
<g id="g28">
</g>
<g id="g30">
</g>
<g id="g32">
</g>
<g id="g34">
</g>
<g id="g36">
</g>
<g id="g42">
</g>
<g id="g6_1_">
	<g id="g4_1_">
		<path id="path2_1_" class="st0" d="M24.7,4.2H2.3C1,4.2-0.1,5.3-0.1,6.6v13.9c0,1.3,1.1,2.4,2.4,2.4h22.4c1.3,0,2.4-1.1,2.4-2.4
			V6.6C27.1,5.3,26,4.2,24.7,4.2z M24.4,5.8L24.1,6l-9.6,8c-0.6,0.5-1.3,0.5-1.9,0L2.9,6L2.6,5.8H24.4z M1.5,6.9l7.9,6.5l-7.9,5.2
			C1.5,18.6,1.5,6.9,1.5,6.9z M24.7,21.2H2.3c-0.4,0-0.7-0.3-0.8-0.6l9.1-6.1l0.9,0.8c0.6,0.5,1.3,0.7,2,0.7s1.4-0.2,2-0.7l0.9-0.8
			l9.1,6.1C25.4,21,25.1,21.2,24.7,21.2z M25.5,18.7l-7.9-5.2L25.5,7V18.7z"/>
	</g>
</g>
</svg>
