<?xml version="1.0" encoding="utf-8"?>
<!-- Generator: Adobe Illustrator 24.0.2, SVG Export Plug-In . SVG Version: 6.00 Build 0)  -->
<svg version="1.1"
	 id="Capa_1" inkscape:version="0.92.3 (2405546, 2018-03-11)" sodipodi:docname="limpiador.svg" xmlns:cc="http://creativecommons.org/ns#" xmlns:dc="http://purl.org/dc/elements/1.1/" xmlns:inkscape="http://www.inkscape.org/namespaces/inkscape" xmlns:rdf="http://www.w3.org/1999/02/22-rdf-syntax-ns#" xmlns:sodipodi="http://sodipodi.sourceforge.net/DTD/sodipodi-0.dtd" xmlns:svg="http://www.w3.org/2000/svg"
	 xmlns="http://www.w3.org/2000/svg" xmlns:xlink="http://www.w3.org/1999/xlink" x="0px" y="0px" viewBox="0 0 98 90"
	 style="enable-background:new 0 0 98 90;" xml:space="preserve">
<style type="text/css">
	.st0{fill:#00969B;}
</style>
<sodipodi:namedview  bordercolor="#666666" borderopacity="1" gridtolerance="10" guidetolerance="10" id="namedview45" inkscape:current-layer="Capa_1" inkscape:cx="256" inkscape:cy="256" inkscape:pageopacity="0" inkscape:pageshadow="2" inkscape:window-height="480" inkscape:window-maximized="0" inkscape:window-width="640" inkscape:window-x="0" inkscape:window-y="0" inkscape:zoom="0.4609375" objecttolerance="10" pagecolor="#ffffff" showgrid="false">
	</sodipodi:namedview>
<g id="g14">
</g>
<g id="g16">
</g>
<g id="g18">
</g>
<g id="g20">
</g>
<g id="g22">
</g>
<g id="g24">
</g>
<g id="g26">
</g>
<g id="g28">
</g>
<g id="g30">
</g>
<g id="g32">
</g>
<g id="g34">
</g>
<g id="g36">
</g>
<g id="g38">
</g>
<g id="g40">
</g>
<g id="g42">
</g>
<g id="g48">
</g>
<path id="path4" class="st0" d="M93.9,88.1l-2.1-6.6c-0.2-0.6-0.7-0.9-1.3-0.9h-8.2c-0.2-2.1-1.7-3.8-3.8-4.4V14.6
	C78.6,6.5,72.1,0,64,0S49.4,6.5,49.4,14.6v16.5c0,3.3-0.6,6.6-1.9,9.6L41.4,55c-2.1-0.3-4.1,0.8-4.9,2.7l0,0
	c-2.1-0.5-4.3-0.8-6.5-0.8H18c-7.8,0-14,5.8-14,12.8v6.6c0,4,3.2,7.3,7.4,7.8l0,0c1.6,4.6,6.7,7.1,11.4,5.4c2.5-0.9,4.5-2.9,5.4-5.4
	h18.1c4.8,0,8.7-3.6,8.7-8c0-0.8-0.1-1.6-0.4-2.3c-0.9-2.7-2.3-5.2-4.1-7.4c-0.3-0.4-0.7-0.8-1.1-1.3l0,0l0,0l0,0
	c-1.3-1.4-2.7-2.6-4.3-3.6l0,0c0.2-0.6,0.4-1.2,0.4-1.8c0-1.4-0.6-2.7-1.6-3.6l0,0l6.2-14.3c1.4-3.4,2.1-7,2.1-10.6V14.6
	c0-6.6,5.4-12,12-12s12,5.4,12,12v61.6c-2,0.5-3.5,2.3-3.8,4.4H64c-0.6,0-1.1,0.4-1.3,0.9l-2.1,6.6c-0.1,0.4-0.1,0.8,0.2,1.2
	c0.2,0.3,0.6,0.5,1.1,0.5h30.8c0.4,0,0.8-0.2,1.1-0.5C94,89,94.1,88.5,93.9,88.1L93.9,88.1z M39.9,57.7c0.2-0.1,0.5-0.2,0.8-0.2
	s0.6,0.1,0.9,0.2c0.3,0.1,0.5,0.3,0.7,0.6c0.3,0.4,0.5,0.8,0.5,1.3c0,0.1,0,0.3,0,0.4l0,0c-1.2-0.6-2.4-1.1-3.7-1.6l0,0
	C39.2,58.1,39.6,57.9,39.9,57.7z M17.9,59.6h12c2.3,0,4.6,0.3,6.8,0.9h0.1c2,0.6,3.9,1.4,5.7,2.5c0,0,0.1,0,0.1,0.1
	c0.8,0.5,1.6,1,2.3,1.6H8.2C10.3,61.4,14,59.5,17.9,59.6L17.9,59.6z M19.8,87.3c-2.9,0-5.4-2-6.1-4.8l0,0c-0.1-0.5-0.2-0.9-0.2-1.4
	c0-3.5,2.8-6.3,6.3-6.3s6.3,2.8,6.3,6.3c0,0.5-0.1,0.9-0.2,1.4c0,0,0,0,0,0.1C25.2,85.4,22.7,87.3,19.8,87.3L19.8,87.3z M52.1,74.6
	c0.2,0.5,0.2,1,0.2,1.5c0,3-2.7,5.4-6.1,5.4H28.7c0-0.1,0-0.3,0-0.4c0-4.9-4-8.9-8.9-8.9s-8.9,4-8.9,8.9c0,0.1,0,0.1,0,0.2
	c-2.4-0.5-4.1-2.5-4.2-5v-6.6c0-0.8,0.1-1.6,0.3-2.3h40.9c0.2,0.2,0.4,0.5,0.6,0.7C50.1,70,51.3,72.2,52.1,74.6L52.1,74.6z
	 M76.6,78.8c0.5-0.1,1-0.1,1.4,0c0.8,0.3,1.5,0.9,1.7,1.8h-4.8C75.1,79.7,75.7,79,76.6,78.8z M63.7,87.2l1.3-4h24.5l1.3,4H63.7z"/>
</svg>
