<?xml version="1.0" encoding="utf-8"?>
<!-- Generator: Adobe Illustrator 24.0.2, SVG Export Plug-In . SVG Version: 6.00 Build 0)  -->
<svg version="1.1"
	 id="Capa_1" inkscape:version="0.92.3 (2405546, 2018-03-11)" sodipodi:docname="binoculares.svg" xmlns:cc="http://creativecommons.org/ns#" xmlns:dc="http://purl.org/dc/elements/1.1/" xmlns:inkscape="http://www.inkscape.org/namespaces/inkscape" xmlns:rdf="http://www.w3.org/1999/02/22-rdf-syntax-ns#" xmlns:sodipodi="http://sodipodi.sourceforge.net/DTD/sodipodi-0.dtd" xmlns:svg="http://www.w3.org/2000/svg"
	 xmlns="http://www.w3.org/2000/svg" xmlns:xlink="http://www.w3.org/1999/xlink" x="0px" y="0px" viewBox="0 0 96 89"
	 style="enable-background:new 0 0 96 89;" xml:space="preserve">
<style type="text/css">
	.st0{fill:#00959B;}
</style>
<sodipodi:namedview  bordercolor="#666666" borderopacity="1" gridtolerance="10" guidetolerance="10" id="namedview51" inkscape:current-layer="Capa_1" inkscape:cx="228.149" inkscape:cy="228.149" inkscape:pageopacity="0" inkscape:pageshadow="2" inkscape:window-height="480" inkscape:window-maximized="0" inkscape:window-width="640" inkscape:window-x="0" inkscape:window-y="0" inkscape:zoom="0.51720586" objecttolerance="10" pagecolor="#ffffff" showgrid="false">
	</sodipodi:namedview>
<g id="g20">
</g>
<g id="g22">
</g>
<g id="g24">
</g>
<g id="g26">
</g>
<g id="g28">
</g>
<g id="g30">
</g>
<g id="g32">
</g>
<g id="g34">
</g>
<g id="g36">
</g>
<g id="g38">
</g>
<g id="g40">
</g>
<g id="g42">
</g>
<g id="g44">
</g>
<g id="g46">
</g>
<g id="g48">
</g>
<g>
	<path class="st0" d="M95.5,57.5l0-0.1c0-0.1,0-0.2-0.1-0.3l-0.1-0.2c-0.3-1.2-0.7-2.3-1.3-3.4l0-0.1L83.2,24.1
		c-0.9-2.8-2.7-5.2-5-6.9l-0.3-0.2L77.4,14c0-0.1,0-0.2-0.1-0.2c-1.3-4-5-6.6-9.2-6.6c0,0,0,0,0,0c-5.2,0-9.6,4.3-9.7,9.6l0,0.1
		l0.1,4.5l-0.1,0.2c-0.9,1.6-1.5,3.3-1.8,5.1l-0.1,0.7h-17l-0.1-0.7c-0.2-1.8-0.8-3.6-1.7-5.1l-0.1-0.2l0.1-4.4l0-0.1
		c-0.1-5.3-4.5-9.6-9.7-9.6c0,0,0,0,0,0c-4.2,0-7.9,2.7-9.2,6.6c0,0.1,0,0.1-0.1,0.2l-0.4,3l-0.3,0.2c-2.4,1.7-4.1,4.1-5,6.9l0,0
		L2,53.4l0,0c-0.5,1.1-0.9,2.2-1.3,3.4l0,0.1l-0.1,0.1c0,0.1-0.1,0.2-0.1,0.3l0,0.1C-2,68.2,4.7,78.9,15.4,81.4
		c10.7,2.5,21.3-4.2,23.8-14.9c0.3-1.5,0.5-3,0.5-4.5c0-0.2,0-0.4,0-0.6l0-0.1l0-0.1c0-0.1,0-0.1,0-0.2l-0.1-8h16.7l-0.1,8.5l0,0.1
		l0,0.1c0,0.1,0,0.2,0,0.3c0,5.3,2.1,10.3,5.8,14c3.7,3.7,8.7,5.8,14,5.8c0,0,0,0,0,0c5.3,0,10.3-2.1,14-5.8c3.7-3.7,5.8-8.7,5.8-14
		C96,60.5,95.8,59,95.5,57.5z M21.3,14c1.2-2.6,3.7-4.2,6.5-4.2c0,0,0,0,0,0c3.7,0,6.8,2.9,7.1,6.7l0.2,1.8l-1.5-1
		c-3.3-2.3-7.4-3.1-11.3-2l-1.7,0.5L21.3,14z M15.2,25c1.9-5.8,8.2-9,14.1-7.1c2.4,0.8,4.4,2.3,5.8,4.4l0,0.1c0,0,0.1,0.1,0.1,0.1
		l0,0c1.1,1.8,1.7,3.8,1.7,5.9l0.1,23.5l-1.6-2c-6.2-8.1-17.5-10.1-26.1-4.7l-2.1,1.3L15.2,25z M35.4,69.6c-2.9,5.9-9,9.7-15.5,9.7
		c0,0,0,0,0,0H19v0c-4.3-0.2-8.3-2-11.4-5C4.4,71,2.6,66.6,2.6,62c0-1.4,0.2-2.9,0.5-4.3l0-0.1l1.2-3.2c4.2-8.6,14.6-12.1,23.1-7.9
		c4.1,2,7.3,5.6,8.7,9.9C37.7,60.8,37.4,65.5,35.4,69.6z M56.4,50.5H39.6l0-4.9h16.8L56.4,50.5z M56.4,43H39.6l-0.1-13.1h17L56.4,43
		z M61,16.5c0.2-3.8,3.4-6.8,7.1-6.8c0,0,0,0,0,0c2.9,0,5.4,1.7,6.6,4.3l0.7,1.6l-1.7-0.5c-3.9-1-8.1-0.3-11.4,2l-1.5,1L61,16.5z
		 M59.1,28.3c0-6.1,5-11,11.1-11c0,0,0,0,0,0c2,0,3.9,0.5,5.6,1.5l0.1,0.1c0.1,0,0.1,0.1,0.2,0.1l0.1,0c2.2,1.4,3.8,3.5,4.6,5.9l0,0
		l7.9,21.4l-2.1-1.3c-8.7-5.4-19.9-3.4-26.1,4.7l-1.5,2L59.1,28.3z M91,70.8c-2.4,4-6.1,6.8-10.6,7.9c-0.8,0.2-1.5,0.3-2.3,0.4
		l0.1,0.1l-2.1,0c0,0,0,0,0,0c-4.6,0-8.9-1.8-12.2-5.1c-3.3-3.3-5.1-7.6-5.1-12.2c0-4.6,1.8-9,5.1-12.2c3.3-3.3,7.6-5.1,12.2-5.1
		c0,0,0,0,0,0c6.5,0,12.6,3.8,15.5,9.7l0,0.1l1.2,3.2C94,62.2,93.4,66.9,91,70.8z"/>
	<path class="st0" d="M19.9,48.2C12.2,48.2,6,54.4,6,62c0,7.6,6.2,13.8,13.8,13.8S33.7,69.6,33.7,62C33.7,54.4,27.5,48.2,19.9,48.2z
		 M19.9,73.3L19.9,73.3c-6.2,0-11.2-5-11.2-11.2s5-11.2,11.2-11.2s11.2,5,11.2,11.2C31.1,68.2,26,73.3,19.9,73.3z"/>
	<path class="st0" d="M75.9,48.2c-7.6,0-13.8,6.2-13.8,13.8c0,7.6,6.2,13.8,13.8,13.8S89.7,69.6,89.7,62
		C89.7,54.4,83.5,48.2,75.9,48.2z M75.9,73.3L75.9,73.3c-6.2,0-11.2-5-11.2-11.2s5-11.2,11.2-11.2c6.2,0,11.2,5,11.2,11.2
		C87.1,68.2,82.1,73.3,75.9,73.3z"/>
</g>
</svg>
