<?xml version="1.0" encoding="utf-8"?>
<!-- Generator: Adobe Illustrator 24.0.2, SVG Export Plug-In . SVG Version: 6.00 Build 0)  -->
<svg version="1.1"
	 id="Capa_1" inkscape:version="0.92.3 (2405546, 2018-03-11)" sodipodi:docname="llamar-a-los-numeros-de-telefono.svg" xmlns:cc="http://creativecommons.org/ns#" xmlns:dc="http://purl.org/dc/elements/1.1/" xmlns:inkscape="http://www.inkscape.org/namespaces/inkscape" xmlns:rdf="http://www.w3.org/1999/02/22-rdf-syntax-ns#" xmlns:sodipodi="http://sodipodi.sourceforge.net/DTD/sodipodi-0.dtd" xmlns:svg="http://www.w3.org/2000/svg"
	 xmlns="http://www.w3.org/2000/svg" xmlns:xlink="http://www.w3.org/1999/xlink" x="0px" y="0px" viewBox="0 0 27 27"
	 style="enable-background:new 0 0 27 27;" xml:space="preserve">
<style type="text/css">
	.st0{fill:#9B9B9B;}
</style>
<sodipodi:namedview  bordercolor="#666666" borderopacity="1" gridtolerance="10" guidetolerance="10" id="namedview39" inkscape:current-layer="Capa_1" inkscape:cx="25.756001" inkscape:cy="25.756001" inkscape:pageopacity="0" inkscape:pageshadow="2" inkscape:window-height="480" inkscape:window-maximized="0" inkscape:window-width="640" inkscape:window-x="0" inkscape:window-y="0" inkscape:zoom="4.5814567" objecttolerance="10" pagecolor="#ffffff" showgrid="false">
	</sodipodi:namedview>
<g id="g8">
</g>
<g id="g10">
</g>
<g id="g12">
</g>
<g id="g14">
</g>
<g id="g16">
</g>
<g id="g18">
</g>
<g id="g20">
</g>
<g id="g22">
</g>
<g id="g24">
</g>
<g id="g26">
</g>
<g id="g28">
</g>
<g id="g30">
</g>
<g id="g32">
</g>
<g id="g34">
</g>
<g id="g36">
</g>
<g id="g42">
</g>
<g id="g6_3_">
	<g id="g4_3_">
		<path id="path2_2_" class="st0" d="M26.2,23.6c0.2-0.3,0.3-0.9,0.3-1.3c0-0.8-0.2-1.4-0.5-1.7c-0.1-0.1-3.6-3.3-3.7-3.4l-0.1-0.1
			c-0.1-0.1-0.3-0.3-0.7-0.5c-0.9-0.4-2-0.3-2.8,0.4l-1.4,1.3c-0.2,0.2-0.4,0.3-0.5,0.4l0,0c0,0,0,0-0.1,0l-8-8.7c0,0,0-0.1,0-0.2
			c0-0.1,0.2-0.3,0.3-0.4l1.4-1.3c0.3-0.3,0.5-0.6,0.6-1c0.2-0.6,0.2-1.2,0-1.8c-0.1-0.2-0.2-0.4-0.4-0.6l0,0c0,0-3-3.8-3.1-4
			C7.3,0.5,7,0.3,6.5,0.1C6.2,0,5.8,0,5.6,0C5.5,0,5.2,0,5,0.1C4.5,0.2,4.2,0.4,4,0.6C3.9,0.7,3.7,0.9,3.7,0.9
			C2.8,1.9,1.6,3.5,1,5.3C0.7,6,0.6,6.8,0.5,7.5c-0.1,4.2,5.1,10.2,6.8,11.9c1.6,1.7,7.2,7.4,11.4,7.6c2.5,0.1,5.1-1.4,6.8-2.7
			c0.1-0.1,0.2-0.2,0.3-0.2C25.9,24,26,23.8,26.2,23.6z M24.9,22.4c0,0.1,0,0.4-0.1,0.4l-0.1,0.1L24.6,23h-0.1
			c-1.5,1.1-3.7,2.5-5.8,2.4c-2.9-0.1-7.4-3.9-10.3-7.1c-3-3.2-6.4-7.9-6.3-10.8c0-0.5,0.1-1.1,0.3-1.7c0.5-1.5,1.6-3,2.4-3.9
			c0,0,0.1-0.1,0.2-0.2c0,0,0.1-0.1,0.4-0.1c0,0,0.1,0,0.2,0c0.2,0,0.3,0,0.3,0c0.3,0.1,0.4,0.2,0.4,0.2C6.5,2,9,5.2,9.3,5.6
			c0,0,0,0,0.1,0.1c0,0,0.1,0.1,0.2,0.3c0.1,0.2,0.1,0.5,0,0.7c0,0.1-0.1,0.2-0.2,0.3L7.9,8.3C7.6,8.5,7.3,9.1,7.2,9.6
			c-0.1,0.6,0,1.1,0.3,1.5l8.2,8.8c0.3,0.3,0.7,0.5,1.2,0.5c0.2,0,0.4,0,0.7-0.1c0.3-0.1,0.8-0.5,0.9-0.7l1.4-1.3
			c0.3-0.3,0.7-0.3,1-0.2c0.1,0.1,0.2,0.2,0.3,0.2l0.1,0.1c0.2,0.2,3.3,3.1,3.5,3.2C24.8,21.7,24.9,21.9,24.9,22.4z"/>
	</g>
</g>
</svg>
