<?xml version="1.0" encoding="utf-8"?>
<!-- Generator: Adobe Illustrator 24.0.2, SVG Export Plug-In . SVG Version: 6.00 Build 0)  -->
<svg version="1.1" id="Capa_1" xmlns="http://www.w3.org/2000/svg" xmlns:xlink="http://www.w3.org/1999/xlink" x="0px" y="0px"
	 viewBox="0 0 89 89" style="enable-background:new 0 0 89 89;" xml:space="preserve">
<style type="text/css">
	.st0{fill:#444444;}
</style>
<g>
	<path class="st0" d="M29.5,21.7h6c0.6,0,1.1-0.5,1.1-1.1v-6c0-0.6-0.5-1.1-1.1-1.1h-6c-0.6,0-1.1,0.5-1.1,1.1v6
		C28.4,21.2,28.9,21.7,29.5,21.7z M30.7,15.7h3.7v3.7h-3.7V15.7z"/>
	<path class="st0" d="M41.5,21.7h6c0.6,0,1.1-0.5,1.1-1.1v-6c0-0.6-0.5-1.1-1.1-1.1h-6c-0.6,0-1.1,0.5-1.1,1.1v6
		C40.4,21.2,40.9,21.7,41.5,21.7z M42.6,15.7h3.7v3.7h-3.7V15.7z"/>
	<path class="st0" d="M53.5,21.7h6c0.6,0,1.1-0.5,1.1-1.1v-6c0-0.6-0.5-1.1-1.1-1.1h-6c-0.6,0-1.1,0.5-1.1,1.1v6
		C52.3,21.2,52.9,21.7,53.5,21.7z M54.6,15.7h3.7v3.7h-3.7V15.7z"/>
	<path class="st0" d="M29.5,33.7h6c0.6,0,1.1-0.5,1.1-1.1v-6c0-0.6-0.5-1.1-1.1-1.1h-6c-0.6,0-1.1,0.5-1.1,1.1v6
		C28.4,33.2,28.9,33.7,29.5,33.7z M30.7,27.7h3.7v3.7h-3.7V27.7z"/>
	<path class="st0" d="M41.5,33.7h6c0.6,0,1.1-0.5,1.1-1.1v-6c0-0.6-0.5-1.1-1.1-1.1h-6c-0.6,0-1.1,0.5-1.1,1.1v6
		C40.4,33.2,40.9,33.7,41.5,33.7z M42.6,27.7h3.7v3.7h-3.7V27.7z"/>
	<path class="st0" d="M53.5,33.7h6c0.6,0,1.1-0.5,1.1-1.1v-6c0-0.6-0.5-1.1-1.1-1.1h-6c-0.6,0-1.1,0.5-1.1,1.1v6
		C52.3,33.2,52.9,33.7,53.5,33.7z M54.6,27.7h3.7v3.7h-3.7V27.7z"/>
	<path class="st0" d="M29.5,45.6h6c0.6,0,1.1-0.5,1.1-1.1v-6c0-0.6-0.5-1.1-1.1-1.1h-6c-0.6,0-1.1,0.5-1.1,1.1v6
		C28.4,45.1,28.9,45.6,29.5,45.6z M30.7,39.6h3.7v3.7h-3.7V39.6z"/>
	<path class="st0" d="M41.5,45.6h6c0.6,0,1.1-0.5,1.1-1.1v-6c0-0.6-0.5-1.1-1.1-1.1h-6c-0.6,0-1.1,0.5-1.1,1.1v6
		C40.4,45.1,40.9,45.6,41.5,45.6z M42.6,39.6h3.7v3.7h-3.7V39.6z"/>
	<path class="st0" d="M53.5,45.6h6c0.6,0,1.1-0.5,1.1-1.1v-6c0-0.6-0.5-1.1-1.1-1.1h-6c-0.6,0-1.1,0.5-1.1,1.1v6
		C52.3,45.1,52.9,45.6,53.5,45.6z M54.6,39.6h3.7v3.7h-3.7V39.6z"/>
	<path class="st0" d="M29.5,57.6h6c0.6,0,1.1-0.5,1.1-1.1v-6c0-0.6-0.5-1.1-1.1-1.1h-6c-0.6,0-1.1,0.5-1.1,1.1v6
		C28.4,57.1,28.9,57.6,29.5,57.6z M30.7,51.6h3.7v3.7h-3.7V51.6z"/>
	<path class="st0" d="M41.5,57.6h6c0.6,0,1.1-0.5,1.1-1.1v-6c0-0.6-0.5-1.1-1.1-1.1h-6c-0.6,0-1.1,0.5-1.1,1.1v6
		C40.4,57.1,40.9,57.6,41.5,57.6z M42.6,51.6h3.7v3.7h-3.7V51.6z"/>
	<path class="st0" d="M53.5,57.6h6c0.6,0,1.1-0.5,1.1-1.1v-6c0-0.6-0.5-1.1-1.1-1.1h-6c-0.6,0-1.1,0.5-1.1,1.1v6
		C52.3,57.1,52.9,57.6,53.5,57.6z M54.6,51.6h3.7v3.7h-3.7V51.6z"/>
	<path class="st0" d="M29.5,69.6h6c0.6,0,1.1-0.5,1.1-1.1v-6c0-0.6-0.5-1.1-1.1-1.1h-6c-0.6,0-1.1,0.5-1.1,1.1v6
		C28.4,69.1,28.9,69.6,29.5,69.6z M30.7,63.6h3.7v3.7h-3.7V63.6z"/>
	<path class="st0" d="M41.5,69.6h6c0.6,0,1.1-0.5,1.1-1.1v-6c0-0.6-0.5-1.1-1.1-1.1h-6c-0.6,0-1.1,0.5-1.1,1.1v6
		C40.4,69.1,40.9,69.6,41.5,69.6z M42.6,63.6h3.7v3.7h-3.7V63.6z"/>
	<path class="st0" d="M53.5,69.6h6c0.6,0,1.1-0.5,1.1-1.1v-6c0-0.6-0.5-1.1-1.1-1.1h-6c-0.6,0-1.1,0.5-1.1,1.1v6
		C52.3,69.1,52.9,69.6,53.5,69.6z M54.6,63.6h3.7v3.7h-3.7V63.6z"/>
	<path class="st0" d="M81.5,86.8v-3.8l0.3-0.1c1.5-0.2,2.8-0.9,4-1.8C89,78.5,89.9,74,88,70.4c-1-1.7-1.3-3.8-0.9-5.7l0,0
		c0.4-1.3,0.5-2.7,0.1-4c-0.6-2.6-2.6-4.5-5.2-5.1c-1.8-0.5-3.8-0.2-5.4,0.8s-2.8,2.5-3.2,4.4c-0.3,1.2-0.3,2.4,0,3.6
		c0.6,1.9,0.4,4-0.6,5.8c-1.2,2-1.5,4.3-0.9,6.5c0.6,2.2,2,4.1,4,5.2c0.8,0.4,1.6,0.8,2.5,1c0.1,0,0.2,0,0.2,0c0.1,0,0.1,0,0.2,0
		l0.3,0.1v3.8H66.6V7.1c0-0.6-0.5-1.1-1.1-1.1h-4.9V1.1c0-0.6-0.5-1.1-1.1-1.1H29.5c-0.6,0-1.1,0.5-1.1,1.1V6h-4.9
		c-0.6,0-1.1,0.5-1.1,1.1v79.6H9.7v-3.8l0.3-0.1c2.3-0.4,4.2-1.6,5.6-3.5c1.3-1.9,1.9-4.1,1.5-6.4c-0.2-0.9-0.5-1.8-0.9-2.6
		c-1-1.7-1.3-3.8-0.9-5.7l0,0c0.4-1.3,0.5-2.7,0.1-4c-0.6-2.6-2.6-4.5-5.2-5.1c-1.8-0.5-3.8-0.2-5.4,0.8c-1.6,1-2.8,2.5-3.2,4.4
		c-0.3,1.2-0.3,2.4,0,3.6c0.6,1.9,0.4,4-0.6,5.8c-1.2,2-1.5,4.3-0.9,6.5c0.6,2.2,2,4.1,4,5.2c0.8,0.4,1.6,0.8,2.5,1
		c0.1,0,0.2,0,0.2,0c0.1,0,0.1,0,0.2,0l0.3,0.1v3.8H0V89h89v-2.2H81.5z M7.5,62.8v17.9L7,80.6c-1.6-0.4-3-1.5-3.9-2.9
		c-0.9-1.5-1.1-3.2-0.7-4.8c0.1-0.6,0.4-1.1,0.7-1.6c1.3-2.3,1.6-5,0.8-7.5c-0.1-0.4-0.2-0.9-0.2-1.3c0-1.5,0.7-2.9,1.8-3.8
		c0.8-0.7,1.9-1.1,3-1.1c0,0,0,0,0,0c0.4,0,0.8,0,1.2,0.1c1.3,0.3,2.3,1.1,3,2.2c0.7,1.1,0.9,2.4,0.5,3.7c0,0.1-0.1,0.2-0.1,0.4
		c-0.7,2.5-0.3,5.2,1,7.5c0.5,0.9,0.8,2,0.8,3c0,2.9-2,5.4-4.8,6.1l-0.5,0.1V62.8H7.5z M30.7,2.2h27.7V6H30.7V2.2z M43.4,86.8h-6.7
		V77h6.7V86.8z M52.3,86.8h-6.7V77h6.7V86.8z M64.3,86.8h-9.7V75.9c0-0.6-0.5-1.1-1.1-1.1H35.5c-0.6,0-1.1,0.5-1.1,1.1v10.8h-9.7
		V8.2h39.6V86.8z M79.3,62.8v17.9l-0.5-0.1c-1.6-0.4-3-1.5-3.9-2.9c-0.9-1.5-1.1-3.2-0.7-4.8c0.1-0.6,0.4-1.1,0.7-1.6
		c1.3-2.3,1.6-5,0.8-7.5c-0.1-0.4-0.2-0.8-0.2-1.3c0-1.5,0.7-2.9,1.8-3.8c0.8-0.7,1.9-1.1,3-1.1c0,0,0,0,0,0c0.4,0,0.8,0,1.2,0.1
		c1.3,0.3,2.3,1.1,3,2.2c0.7,1.1,0.9,2.4,0.5,3.7c0,0.1-0.1,0.2-0.1,0.4c-0.7,2.5-0.3,5.2,1,7.5c0.5,0.9,0.8,2,0.8,3
		c0,2.9-2,5.4-4.8,6.1l-0.5,0.1V62.8H79.3z"/>
</g>
</svg>
