<?xml version="1.0" encoding="utf-8"?>
<!-- Generator: Adobe Illustrator 24.0.2, SVG Export Plug-In . SVG Version: 6.00 Build 0)  -->
<svg version="1.1"
	 id="Capa_1" inkscape:version="0.92.3 (2405546, 2018-03-11)" sodipodi:docname="limpiador.svg" xmlns:cc="http://creativecommons.org/ns#" xmlns:dc="http://purl.org/dc/elements/1.1/" xmlns:inkscape="http://www.inkscape.org/namespaces/inkscape" xmlns:rdf="http://www.w3.org/1999/02/22-rdf-syntax-ns#" xmlns:sodipodi="http://sodipodi.sourceforge.net/DTD/sodipodi-0.dtd" xmlns:svg="http://www.w3.org/2000/svg"
	 xmlns="http://www.w3.org/2000/svg" xmlns:xlink="http://www.w3.org/1999/xlink" x="0px" y="0px" viewBox="0 0 98 90"
	 style="enable-background:new 0 0 98 90;" xml:space="preserve">
<style type="text/css">
	.st0{fill:#00969B;}
</style>
<sodipodi:namedview  bordercolor="#666666" borderopacity="1" gridtolerance="10" guidetolerance="10" id="namedview45" inkscape:current-layer="Capa_1" inkscape:cx="256" inkscape:cy="256" inkscape:pageopacity="0" inkscape:pageshadow="2" inkscape:window-height="480" inkscape:window-maximized="0" inkscape:window-width="640" inkscape:window-x="0" inkscape:window-y="0" inkscape:zoom="0.4609375" objecttolerance="10" pagecolor="#ffffff" showgrid="false">
	</sodipodi:namedview>
<g id="g14">
</g>
<g id="g16">
</g>
<g id="g18">
</g>
<g id="g20">
</g>
<g id="g22">
</g>
<g id="g24">
</g>
<g id="g26">
</g>
<g id="g28">
</g>
<g id="g30">
</g>
<g id="g32">
</g>
<g id="g34">
</g>
<g id="g36">
</g>
<g id="g38">
</g>
<g id="g40">
</g>
<g id="g42">
</g>
<g>
	<path class="st0" d="M47.6,14.6c-16.8,0-30.4,13.6-30.4,30.4s13.6,30.4,30.4,30.4S78,61.8,78,45C78.1,28.2,64.4,14.6,47.6,14.6z
		 M69.9,46.5h4.9C74,60.4,63,71.5,49.1,72.2v-4.9c0-0.9-0.7-1.6-1.6-1.6s-1.6,0.7-1.6,1.6v4.9C32.1,71.3,21,60.3,20.2,46.5h4.9
		c0.9,0,1.6-0.7,1.6-1.6s-0.7-1.6-1.6-1.6h-4.9C21,29.5,32.1,18.4,45.9,17.6v4.9c0,0.9,0.7,1.6,1.6,1.6s1.6-0.7,1.6-1.6v-4.9
		C62.9,18.4,74,29.5,74.8,43.3h-4.9c-0.9,0-1.6,0.7-1.6,1.6S69,46.5,69.9,46.5z"/>
	<path class="st0" d="M47.6,26c-0.9,0-1.6,0.7-1.6,1.6v16.8l-6.2,7.3c-0.6,0.7-0.5,1.6,0.2,2.2c0.3,0.2,0.7,0.3,1,0.3
		c0.5,0,0.9-0.2,1.2-0.6l6.5-7.8c0.2-0.2,0.3-0.7,0.3-1V27.6C49.1,26.7,48.4,26,47.6,26z"/>
	<path class="st0" d="M94.4,22.3l-10.4-3c0,0,0,0-0.1,0s-0.3,0-0.5,0h-0.1c-0.1,0-0.3,0.1-0.5,0.1c0,0-0.1,0-0.1,0.1
		c-0.1,0.1-0.2,0.1-0.3,0.2l-0.1,0.1c-0.1,0.1-0.2,0.3-0.2,0.5l-2.9,9.2c-0.2,0.8,0.2,1.7,1,2c0.8,0.2,1.7-0.2,2-1l1.9-5.9
		c3.5,6.2,5.4,13.3,5.4,20.5c0,23.1-18.8,41.7-41.7,41.7c-23.3-0.1-42-18.7-42-41.8S24.5,3.3,47.5,3.3c7,0,14,1.7,20.1,5.1
		c0.8,0.5,1.7,0.1,2.2-0.6c0.5-0.8,0.1-1.7-0.6-2.2C62.5,2,55.1,0,47.5,0c-24.8,0-45,20.2-45,45c0.1,24.8,20.3,45,45.1,45
		s45-20.2,45-45c0-7.6-1.9-15-5.6-21.6l6.4,1.9c0.1,0,0.3,0.1,0.5,0.1c0.7,0,1.3-0.5,1.5-1.2C95.7,23.4,95.2,22.5,94.4,22.3z"/>
</g>
<g id="g48">
</g>
</svg>
