<?xml version="1.0" encoding="utf-8"?>
<!-- Generator: Adobe Illustrator 24.0.2, SVG Export Plug-In . SVG Version: 6.00 Build 0)  -->
<svg version="1.1"
	 id="Capa_1" inkscape:version="0.92.3 (2405546, 2018-03-11)" sodipodi:docname="limpiador.svg" xmlns:cc="http://creativecommons.org/ns#" xmlns:dc="http://purl.org/dc/elements/1.1/" xmlns:inkscape="http://www.inkscape.org/namespaces/inkscape" xmlns:rdf="http://www.w3.org/1999/02/22-rdf-syntax-ns#" xmlns:sodipodi="http://sodipodi.sourceforge.net/DTD/sodipodi-0.dtd" xmlns:svg="http://www.w3.org/2000/svg"
	 xmlns="http://www.w3.org/2000/svg" xmlns:xlink="http://www.w3.org/1999/xlink" x="0px" y="0px" viewBox="0 0 98 90"
	 style="enable-background:new 0 0 98 90;" xml:space="preserve">
<style type="text/css">
	.st0{fill:#00969B;}
</style>
<sodipodi:namedview  bordercolor="#666666" borderopacity="1" gridtolerance="10" guidetolerance="10" id="namedview45" inkscape:current-layer="Capa_1" inkscape:cx="256" inkscape:cy="256" inkscape:pageopacity="0" inkscape:pageshadow="2" inkscape:window-height="480" inkscape:window-maximized="0" inkscape:window-width="640" inkscape:window-x="0" inkscape:window-y="0" inkscape:zoom="0.4609375" objecttolerance="10" pagecolor="#ffffff" showgrid="false">
	</sodipodi:namedview>
<g id="g14">
</g>
<g id="g16">
</g>
<g id="g18">
</g>
<g id="g20">
</g>
<g id="g22">
</g>
<g id="g24">
</g>
<g id="g26">
</g>
<g id="g28">
</g>
<g id="g30">
</g>
<g id="g32">
</g>
<g id="g34">
</g>
<g id="g36">
</g>
<g id="g38">
</g>
<g id="g40">
</g>
<g id="g42">
</g>
<g id="g48">
</g>
<g>
	<path class="st0" d="M49,30c8.3,0,15-6.7,15-15S57.3,0,49,0S34,6.7,34,15S40.7,30,49,30z M49,3c6.6,0,12,5.4,12,12s-5.4,12-12,12
		s-12-5.4-12-12S42.4,3,49,3z"/>
	<path class="st0" d="M48.4,19.5c1.4,0.2,2.8-0.3,3.7-1.4c0,0,0-0.1,0.1-0.1H58v-3h-4.9c0-0.1,0-0.1,0-0.2L52,7.3
		C51.9,6.5,51.2,6,50.5,6h-3c-0.7,0-1.4,0.5-1.5,1.3l-1.1,7.5C44.6,17.1,46.2,19.1,48.4,19.5z M47.9,15.2L48.8,9h0.4l0.9,6.2
		c0,0.3,0,0.6-0.3,0.9c-0.4,0.5-1.1,0.5-1.6,0.1C48,16,47.9,15.6,47.9,15.2z"/>
	<path class="st0" d="M77.5,9H67v3h10.5c0.8,0,1.5,0.7,1.5,1.5v72c0,0.8-0.7,1.5-1.5,1.5h-57c-0.8,0-1.5-0.7-1.5-1.5v-72
		c0-0.8,0.7-1.5,1.5-1.5H31V9H20.5C18,9,16,11,16,13.5v72c0,2.5,2,4.5,4.5,4.5h57c2.5,0,4.5-2,4.5-4.5v-72C82,11,80,9,77.5,9z"/>
	<path class="st0" d="M73,72V36c0-0.8-0.7-1.5-1.5-1.5h-27c-0.8,0-1.5,0.7-1.5,1.5v7.5H26.5c-0.8,0-1.5,0.7-1.5,1.5v36
		c0,0.8,0.7,1.5,1.5,1.5h18c0.8,0,1.5-0.7,1.5-1.5v-7.5h25.5C72.3,73.5,73,72.8,73,72z M46,37.5h6v6h-6V37.5z M37,55.5h6v6h-6V55.5z
		 M28,46.5h6v6h-6V46.5z M28,55.5h6v6h-6V55.5z M34,79.5h-6v-6h6V79.5z M43,79.5h-6v-6h6V79.5z M52,70.5h-7.5H28v-6h24V70.5z
		 M61,70.5h-6v-6h6V70.5z M61,61.5h-7.5H46v-6h15V61.5z M61,52.5H37v-6h16.5H61V52.5z M70,70.5h-6v-6h6V70.5z M70,61.5h-6v-6h6V61.5
		z M70,52.5h-6v-6h6V52.5z M70,43.5H55v-6h15V43.5z"/>
	<rect x="29.5" y="37.5" class="st0" width="3" height="3"/>
	<rect x="37" y="37.5" class="st0" width="3" height="3"/>
	<rect x="49" y="76.5" class="st0" width="3" height="3"/>
	<rect x="56.5" y="76.5" class="st0" width="3" height="3"/>
	<rect x="64" y="76.5" class="st0" width="3" height="3"/>
</g>
</svg>
