<?xml version="1.0" encoding="utf-8"?>
<!-- Generator: Adobe Illustrator 24.0.2, SVG Export Plug-In . SVG Version: 6.00 Build 0)  -->
<svg version="1.1"
	 id="Capa_1" inkscape:version="0.92.3 (2405546, 2018-03-11)" sodipodi:docname="limpiador.svg" xmlns:cc="http://creativecommons.org/ns#" xmlns:dc="http://purl.org/dc/elements/1.1/" xmlns:inkscape="http://www.inkscape.org/namespaces/inkscape" xmlns:rdf="http://www.w3.org/1999/02/22-rdf-syntax-ns#" xmlns:sodipodi="http://sodipodi.sourceforge.net/DTD/sodipodi-0.dtd" xmlns:svg="http://www.w3.org/2000/svg"
	 xmlns="http://www.w3.org/2000/svg" xmlns:xlink="http://www.w3.org/1999/xlink" x="0px" y="0px" viewBox="0 0 98 90"
	 style="enable-background:new 0 0 98 90;" xml:space="preserve">
<style type="text/css">
	.st0{fill:#00969B;}
</style>
<sodipodi:namedview  bordercolor="#666666" borderopacity="1" gridtolerance="10" guidetolerance="10" id="namedview45" inkscape:current-layer="Capa_1" inkscape:cx="256" inkscape:cy="256" inkscape:pageopacity="0" inkscape:pageshadow="2" inkscape:window-height="480" inkscape:window-maximized="0" inkscape:window-width="640" inkscape:window-x="0" inkscape:window-y="0" inkscape:zoom="0.4609375" objecttolerance="10" pagecolor="#ffffff" showgrid="false">
	</sodipodi:namedview>
<g id="g14">
</g>
<g id="g16">
</g>
<g id="g18">
</g>
<g id="g20">
</g>
<g id="g22">
</g>
<g id="g24">
</g>
<g id="g26">
</g>
<g id="g28">
</g>
<g id="g30">
</g>
<g id="g32">
</g>
<g id="g34">
</g>
<g id="g36">
</g>
<g id="g38">
</g>
<g id="g40">
</g>
<g id="g42">
</g>
<g id="g48">
</g>
<g>
	<path class="st0" d="M96.6,9.9c-0.8,0-1.4,0.6-1.4,1.4c0,8.3-6.4,15.1-14.6,15.7c-0.6-2.2-2.7-3.8-5-3.8H66c-2.4,0-4.4,1.6-5.1,3.8
		H47.8c-2.4,0-4.3,1.9-4.3,4.3s1.9,4.3,4.3,4.3h1.4v12c-1.2-0.9-2.7-1.4-4.3-1.4H33.4C18.6,46.2,6.5,58,5.8,72.6
		c-3.3,0.7-5.8,3.6-5.8,7v5.7c0,0.8,0.6,1.4,1.4,1.4h27.8c1.8,1.8,4.3,2.9,7,2.9s5.2-1.1,7-2.9h7.3c0.8,0,1.4-0.6,1.4-1.4v-51
		c0-0.8-0.6-1.4-1.4-1.4h-2.9c-0.8,0-1.4-0.6-1.4-1.4c0-0.8,0.6-1.4,1.4-1.4h12.9v17.7c0,2.7,1.1,5.2,2.9,7v30.6L58.6,87
		c-0.8,0.3-1.2,1.1-0.9,1.8c0.2,0.6,0.8,1,1.4,1c0.2,0,0.3,0,0.5-0.1l5.7-1.9c0.6-0.2,1-0.7,1-1.4V56.8c1.3,0.6,2.8,1,4.3,1
		s3-0.3,4.3-1v28.6L70.1,87c-0.8,0.3-1.2,1.1-0.9,1.8c0.2,0.6,0.8,1,1.4,1c0.2,0,0.3,0,0.5-0.1l5.7-1.9c0.6-0.2,1-0.7,1-1.4V54.7
		c1.8-1.8,2.9-4.3,2.9-7V29.9C90.4,29.2,98,21.1,98,11.3C98,10.5,97.4,9.9,96.6,9.9z M27.2,83.9H2.9v-4.3c0-2.4,1.9-4.3,4.3-4.3h20
		c-0.6,1.3-1,2.8-1,4.3S26.6,82.6,27.2,83.9z M36.3,86.8c-4,0-7.2-3.2-7.2-7.2s3.2-7.2,7.2-7.2s7.2,3.2,7.2,7.2
		C43.4,83.6,40.2,86.8,36.3,86.8z M49.2,83.9h-3.8c0.6-1.3,1-2.8,1-4.3s-0.3-3-1-4.3h3.8V83.9z M49.2,57.7h-10
		c-0.8,0-1.4,0.6-1.4,1.4s0.6,1.4,1.4,1.4h10v11.9h-5.9c-1.8-1.8-4.3-2.9-7-2.9s-5.2,1.1-7,2.9h-9.1c0.7-6.7,6.4-11.9,13.2-11.9
		c0.8,0,1.4-0.6,1.4-1.4s-0.6-1.4-1.4-1.4c-8.4,0-15.4,6.5-16.1,14.7H8.7C9.4,59.4,20.3,49,33.4,49h11.5c2.4,0,4.3,1.9,4.3,4.3V57.7
		z M69.3,26.1h2.9v5.7h-2.9V26.1z M63.5,28.5c0-1.3,1.1-2.4,2.4-2.4h0.5v7.2c0,1.9-1.2,3.5-2.9,4.1V28.5z M77.9,47.7
		c0,4-3.2,7.2-7.2,7.2s-7.2-3.2-7.2-7.2v-7.3c2.8-0.6,5-2.8,5.6-5.6h3.2c0.6,2.8,2.8,5,5.6,5.6V47.7z M77.9,37.4
		c-1.7-0.6-2.9-2.2-2.9-4.1v-7.2h0.5c1.3,0,2.4,1.1,2.4,2.4V37.4z"/>
	<path class="st0" d="M70.7,20.4c5.5,0,10-4.5,10-10s-4.5-10-10-10s-10,4.5-10,10S65.2,20.4,70.7,20.4z M70.7,3.2
		c4,0,7.2,3.2,7.2,7.2s-3.2,7.2-7.2,7.2s-7.2-3.2-7.2-7.2S66.8,3.2,70.7,3.2z"/>
</g>
</svg>
